<svg id="Layer_1" data-name="Layer 1" xmlns="http://www.w3.org/2000/svg" viewBox="0 0 56.49 60.4">
  <defs>
    <style>
      .cls-1 {
        fill: #fff;
      }

      .cls-2 {
        fill: none;
        stroke: #fff;
        stroke-miterlimit: 10;
        stroke-width: 2.5px;
      }

      .cls-3 {
        fill: #404b97;
      }
    </style>
  </defs>
  <title>gears</title>
  <g id="Layer_1-2" data-name="Layer 1">
    <g>
      <circle class="cls-1" cx="17.59" cy="41.75" r="6.2"/>
      <path class="cls-2" d="M30.9,45.2a10.28,10.28,0,0,0,.1-1.8,10.28,10.28,0,0,0-.1-1.8L34.5,39a.84.84,0,0,0,.3-1.2l-3.6-6c-.3-.4-.7-.6-1-.4l-4,2a15.72,15.72,0,0,0-3.1-1.8l-.4-4.4a.75.75,0,0,0-.7-.7H15.1a.75.75,0,0,0-.7.7l-.6,4.6a9.68,9.68,0,0,0-3.1,1.8l-4-1.8c-.4-.1-.9,0-1,.4l-3.6,6a.86.86,0,0,0,.3,1.2L6.1,42A11.48,11.48,0,0,0,6,43.8a10.28,10.28,0,0,0,.1,1.8L2.5,48.2a.89.89,0,0,0-.4,1.2l3.6,6c.3.4.7.6,1,.4l4-1.8a15.72,15.72,0,0,0,3.1,1.8l.4,4.4a.75.75,0,0,0,.7.7h6.9a.75.75,0,0,0,.7-.7l.4-4.4A9.68,9.68,0,0,0,26,54l4,1.8c.4.1.9,0,1-.4l3.6-6a.86.86,0,0,0-.3-1.2ZM18.4,49.9a6.4,6.4,0,1,1,6.4-6.4A6.38,6.38,0,0,1,18.4,49.9Z" transform="translate(-0.71 -1.75)"/>
      <path class="cls-3" d="M30.9,45.2a10.28,10.28,0,0,0,.1-1.8,10.28,10.28,0,0,0-.1-1.8L34.5,39a.84.84,0,0,0,.3-1.2l-3.6-6c-.3-.4-.7-.6-1-.4l-4,2a15.72,15.72,0,0,0-3.1-1.8l-.4-4.4a.75.75,0,0,0-.7-.7H15.1a.75.75,0,0,0-.7.7l-.6,4.6a9.68,9.68,0,0,0-3.1,1.8l-4-1.8c-.4-.1-.9,0-1,.4l-3.6,6a.86.86,0,0,0,.3,1.2L6.1,42A11.48,11.48,0,0,0,6,43.8a10.28,10.28,0,0,0,.1,1.8L2.5,48.2a.89.89,0,0,0-.4,1.2l3.6,6c.3.4.7.6,1,.4l4-1.8a15.72,15.72,0,0,0,3.1,1.8l.4,4.4a.75.75,0,0,0,.7.7h6.9a.75.75,0,0,0,.7-.7l.4-4.4A9.68,9.68,0,0,0,26,54l4,1.8c.4.1.9,0,1-.4l3.6-6a.86.86,0,0,0-.3-1.2ZM18.4,49.9a6.4,6.4,0,1,1,6.4-6.4A6.38,6.38,0,0,1,18.4,49.9Z" transform="translate(-0.71 -1.75)"/>
    </g>
    <g>
      <circle class="cls-1" cx="39.69" cy="17.05" r="6.2"/>
      <path class="cls-2" d="M52,20.4a5.24,5.24,0,0,0,.2-1.7,10.28,10.28,0,0,0-.1-1.7l3.3-2.3a.84.84,0,0,0,.3-1L52.4,8c-.3-.4-.7-.6-1-.3L47.7,9.4a13.81,13.81,0,0,0-2.9-1.7l-.5-4c.1-.4-.1-.7-.6-.7H37.3a.68.68,0,0,0-.7.7l-.4,4a9.59,9.59,0,0,0-2.9,1.7L29.6,7.7a1,1,0,0,0-1,.3l-3.3,5.6c-.3.4-.1.7.3,1l3.3,2.3v1.7a10.9,10.9,0,0,0,.1,1.7l-3.3,2.3a.84.84,0,0,0-.3,1l3.3,5.6c.3.4.7.6,1,.3l3.7-1.7a13.81,13.81,0,0,0,2.9,1.7l.4,4a.75.75,0,0,0,.7.7h6.4a.68.68,0,0,0,.7-.7l.4-4a9.59,9.59,0,0,0,2.9-1.7l3.7,1.7a1,1,0,0,0,1-.3l3.3-5.6c.3-.4.1-.7-.3-1ZM40.4,25.2A6.38,6.38,0,0,1,34,18.8a6.44,6.44,0,0,1,6.4-6.4,6.4,6.4,0,1,1,0,12.8Z" transform="translate(-0.71 -1.75)"/>
      <path class="cls-3" d="M52,20.4a5.24,5.24,0,0,0,.2-1.7,10.28,10.28,0,0,0-.1-1.7l3.3-2.3a.84.84,0,0,0,.3-1L52.4,8c-.3-.4-.7-.6-1-.3L47.7,9.4a13.81,13.81,0,0,0-2.9-1.7l-.5-4c.1-.4-.1-.7-.6-.7H37.3a.68.68,0,0,0-.7.7l-.4,4a9.59,9.59,0,0,0-2.9,1.7L29.6,7.7a1,1,0,0,0-1,.3l-3.3,5.6c-.3.4-.1.7.3,1l3.3,2.3v1.7a10.9,10.9,0,0,0,.1,1.7l-3.3,2.3a.84.84,0,0,0-.3,1l3.3,5.6c.3.4.7.6,1,.3l3.7-1.7a13.81,13.81,0,0,0,2.9,1.7l.4,4a.75.75,0,0,0,.7.7h6.4a.68.68,0,0,0,.7-.7l.4-4a9.59,9.59,0,0,0,2.9-1.7l3.7,1.7a1,1,0,0,0,1-.3l3.3-5.6c.3-.4.1-.7-.3-1ZM40.4,25.2A6.38,6.38,0,0,1,34,18.8a6.44,6.44,0,0,1,6.4-6.4,6.4,6.4,0,1,1,0,12.8Z" transform="translate(-0.71 -1.75)"/>
    </g>
  </g>
</svg>
