<svg id="Layer_1" data-name="Layer 1" xmlns="http://www.w3.org/2000/svg" viewBox="0 0 188 188">
  <defs>
    <style>
      .cls-1 {
        fill: #fff;
      }

      .cls-2 {
        fill: #2f80bf;
      }
    </style>
  </defs>
  <title>cardwifi</title>
  <circle class="cls-1" cx="94" cy="94" r="94"/>
  <g>
    <path class="cls-2" d="M132,84.11A7.55,7.55,0,0,1,128,86l17.19,17.19a2,2,0,0,1,0,2.84l-3.78,3.78-44.3-44.3,3.78-3.78a2,2,0,0,1,2.84,0l15.44,15.44a7.58,7.58,0,0,1,1.93-3.95L106.69,58.82a6.18,6.18,0,0,0-8.73,0L91.7,65.09a11.35,11.35,0,0,0-1.09-.85,20,20,0,0,0-3.73-2L41.8,57.41c-3.39-.4-5.3-.1-5.3,2.69V89.64c0,9.57,11.28,15.16,19,12.59,3-.77,8.66-4.93,11-4.56h0l25.16,6.22c4.83.91,8,.85,9.34-2.63,3.21-8.48-4.43-11.93-15-15A6.17,6.17,0,0,1,84.23,85c-1.22-1.28-1.1-3.07-.75-4.66.3-1.38,2.37-3.39,2.87-4.06l5-5,44.3,44.3L120,131.29a2,2,0,0,1-2.84,0L94.8,109,67.05,102.1a7.1,7.1,0,0,0,6.82,7.49,7.13,7.13,0,0,0,11,8.6l.1.1a7.12,7.12,0,0,0,12.28,5.22c1-1.08,2-2.16,3-3.27l14,14a6.18,6.18,0,0,0,8.73,0L148.15,109a6.18,6.18,0,0,0,0-8.73Z" transform="translate(-0.5 -0.5)"/>
    <path class="cls-2" d="M128.37,53l-.65,0c-5.67,0-4.67,5.82.4,5.82h0a19.08,19.08,0,0,1,18.36,18.52c.09,2.8,1.66,4.33,3.17,4.33s2.76-1.33,2.81-4.18C151.12,63.17,142.07,54,128.37,53Z" transform="translate(-0.5 -0.5)"/>
    <path class="cls-2" d="M125.09,68.65A11.49,11.49,0,0,1,136.44,80.1,2.09,2.09,0,0,0,138.68,82c1.41,0,2.93-1.11,2.81-3.86.09-7.16-7-14.29-14.51-14.64h-.2C122.14,63.55,122.64,68.52,125.09,68.65Z" transform="translate(-0.5 -0.5)"/>
    <path class="cls-2" d="M126.83,82.8a4.25,4.25,0,0,0,2.8-1l.23-.2a4.42,4.42,0,0,0,.15-6.23A4.36,4.36,0,0,0,126.89,74a4.51,4.51,0,0,0-3.18,1.35l-.23.25a4.29,4.29,0,0,0,.27,5.92A4.34,4.34,0,0,0,126.83,82.8Z" transform="translate(-0.5 -0.5)"/>
  </g>
</svg>
