<svg id="Layer_1" data-name="Layer 1" xmlns="http://www.w3.org/2000/svg" viewBox="0 0 188 188">
  <defs>
    <style>
      .cls-1 {
        fill: #fff;
      }

      .cls-2 {
        fill: #2f80bf;
      }
    </style>
  </defs>
  <title>wifi</title>
  <circle class="cls-1" cx="94" cy="94" r="94"/>
  <g>
    <circle class="cls-2" cx="69.19" cy="94.05" r="7.69"/>
    <path class="cls-2" d="M83.65,108.49a19.72,19.72,0,0,0,0-27.87l4.81-4.81a26.56,26.56,0,0,1,0,37.48Z" transform="translate(-0.5 -0.5)"/>
    <path class="cls-2" d="M94.51,119.35a35.12,35.12,0,0,0,0-49.63l4.81-4.81a42,42,0,0,1,0,59.24Z" transform="translate(-0.5 -0.5)"/>
    <path class="cls-2" d="M105.41,130.25a50.49,50.49,0,0,0,0-71.44L110.21,54a57.25,57.25,0,0,1,0,81Z" transform="translate(-0.5 -0.5)"/>
  </g>
</svg>
