<svg id="Layer_1" data-name="Layer 1" xmlns="http://www.w3.org/2000/svg" viewBox="0 0 188 188">
  <defs>
    <style>
      .cls-1 {
        fill: #fff;
      }

      .cls-2 {
        fill: #404b97;
      }
    </style>
  </defs>
  <title>card</title>
  <circle class="cls-1" cx="94" cy="94" r="94"/>
  <g>
    <path class="cls-2" d="M80.5,76a1.81,1.81,0,0,1,2.57,0l4.17,4.17,16.88-16.88a1.81,1.81,0,0,1,2.57,0l5.45,5.45a1.81,1.81,0,0,1,0,2.57L88.52,94.88a1.82,1.82,0,0,1-2.57,0L75,84a1.81,1.81,0,0,1,0-2.57Zm14,24.9A23.62,23.62,0,1,0,70.88,77.24,23.64,23.64,0,0,0,94.5,100.86Z" transform="translate(-0.5 -0.5)"/>
    <path class="cls-2" d="M108.28,70l-2.88-2.88L88.52,84a1.82,1.82,0,0,1-2.57,0l-4.17-4.17L78.9,82.69,87.23,91Z" transform="translate(-0.5 -0.5)"/>
    <path class="cls-2" d="M67.25,77.24c0-.61.05-1.21.09-1.82H40v10.9H68.84a27.09,27.09,0,0,1-1.59-9.08" transform="translate(-0.5 -0.5)"/>
    <path class="cls-2" d="M121.75,77.24a27.09,27.09,0,0,1-1.59,9.08H149V75.43H121.66c0,.6.09,1.2.09,1.82" transform="translate(-0.5 -0.5)"/>
    <path class="cls-2" d="M143.55,62.71h-26a27.09,27.09,0,0,1,3.69,9.08H149V68.16a5.46,5.46,0,0,0-5.45-5.45" transform="translate(-0.5 -0.5)"/>
    <path class="cls-2" d="M71.49,62.71h-26A5.46,5.46,0,0,0,40,68.16v3.63H67.8a27,27,0,0,1,3.69-9.08" transform="translate(-0.5 -0.5)"/>
    <path class="cls-2" d="M130.83,108.13a9.08,9.08,0,1,1-6.36,15.56,9.08,9.08,0,1,1,0-13,9.11,9.11,0,0,1,6.36-2.61ZM80,122.66h21.8v-10.9H80Zm-29.07,0H72.7v-10.9H50.9Zm43.6-18.17A27.26,27.26,0,0,1,70.42,90H40v40a5.46,5.46,0,0,0,5.45,5.45h98.1a5.46,5.46,0,0,0,5.45-5.45V90H118.58A27.26,27.26,0,0,1,94.5,104.49Z" transform="translate(-0.5 -0.5)"/>
    <polygon class="cls-1" points="54.03 118.53 68.57 118.53 68.57 114.89 54.03 114.89 54.03 118.53"/>
    <polygon class="cls-1" points="83.1 118.53 97.63 118.53 97.63 114.89 83.1 114.89 83.1 118.53"/>
    <path class="cls-2" d="M112.67,117.21a5.45,5.45,0,0,0,10.17,2.73,1.78,1.78,0,0,1,1.38-.87,1.68,1.68,0,0,1,.27,0h.22a1.79,1.79,0,0,1,1.4.87,5.45,5.45,0,1,0,0-5.45,1.78,1.78,0,0,1-1.41.87h-.2l-.28,0a1.78,1.78,0,0,1-1.38-.86,5.45,5.45,0,0,0-10.17,2.72" transform="translate(-0.5 -0.5)"/>
  </g>
</svg>
