<svg id="Layer_1" data-name="Layer 1" xmlns="http://www.w3.org/2000/svg" viewBox="0 0 188 188">
  <defs>
    <style>
      .cls-1 {
        fill: #fff;
      }

      .cls-2 {
        fill: #404b97;
      }
    </style>
  </defs>
  <title>cardinhand</title>
  <circle class="cls-1" cx="94" cy="94" r="94"/>
  <g>
    <path class="cls-1" d="M146,104.72a4.93,4.93,0,0,1-1.77,4.18l-2.5,2a6.24,6.24,0,0,1-1.2,1.49c-1.78,2.27-19.32,24.27-35,29.87,0,.06,0,.13.07.2a2,2,0,0,1-.26,1.57l-9,14a2,2,0,0,1-1.69.93H45a2,2,0,0,1-1.54-3.29L70,123.86a2,2,0,0,1,2.51-.47l3.15,1.75,1.41-1.74a1.54,1.54,0,0,1,.17-.19c.16-.16,4.21-4.36,1.2-13.5-3.85-11.66-.58-24.12,2.3-35.11.22-.83.44-1.66.65-2.48.49-1.89.92-3.44,1.3-4.78,1.68-6,2.08-7.41.62-15.78a2,2,0,0,1,1-2.08,7.26,7.26,0,0,1,5.64-.64V36.6a6.56,6.56,0,0,1,6.55-6.55H126.7a6.56,6.56,0,0,1,6.56,6.55V65.88c.16,0,.31,0,.48,0a7.09,7.09,0,0,1,5.39,2.89c2.3,2.93,2.26,6.66-.09,8.51l-.08,0-.23.17a8,8,0,0,1,1.85,1.74c2,2.53,2.23,5.68.71,7.67a5.94,5.94,0,0,1,2.25,1.74,6.31,6.31,0,0,1,1.1,5.27,8.26,8.26,0,0,1-2.75,4.43,8.06,8.06,0,0,1,2.42,2.08A7.64,7.64,0,0,1,146,104.72Zm-4.25,1a1,1,0,0,0,.24-.85,3.62,3.62,0,0,0-.82-2,3.22,3.22,0,0,0-2.24-1.36.67.67,0,0,0-.41.11l-7.37,5.79c-.36.29-.42,1.59.58,2.87s2.25,1.56,2.65,1.24Zm-1-12.73a2.07,2.07,0,0,0-2.19-2.7,4.27,4.27,0,0,0-2.48.87l-2.93,2.31-.13.08-9.62,7.56c-1.55,1.21-2.12,3.19-1.24,4.3a2.31,2.31,0,0,0,1.84.78,4.3,4.3,0,0,0,2.63-1l12.53-9.85A4.29,4.29,0,0,0,140.72,93ZM138,84.54c.36-.28.42-1.59-.59-2.87a3.2,3.2,0,0,0-2.23-1.35.67.67,0,0,0-.41.11l-7.37,5.79c-.41.32-.39,1.63.58,2.87s2.15,1.53,2.6,1.26l2.84-2.23.26-.19Zm-1.43-10.48c.35-.31.38-1.59-.6-2.85s-2.25-1.56-2.65-1.24l-.08.06-5.4,3.83c-.39.35-.35,1.64.6,2.85s2.25,1.56,2.65,1.25l.08-.06ZM129.25,68V36.6a2.55,2.55,0,0,0-2.55-2.54H107.17V95.19h17.26l2.34-1.84a8.38,8.38,0,0,1-1.94-1.79c-2.29-2.92-2.25-6.65.1-8.5l2.51-2a7.83,7.83,0,0,1-2.14-1.9c-2.3-2.92-2.25-6.66.09-8.5l.08-.06Zm3.39,47.54a7.51,7.51,0,0,1-4.07-2.72,7.92,7.92,0,0,1-1.53-3.18,8,8,0,0,1-3.07.64,6.29,6.29,0,0,1-5-2.32c-1.93-2.46-1.57-6.08.65-8.7H96.49a6.57,6.57,0,0,1-6.55-6.56V53.53a2.7,2.7,0,0,0-2.37-1c1.25,7.88.63,10.08-1,15.88-.38,1.32-.8,2.85-1.28,4.7l-.66,2.5c-2.87,11-5.84,22.3-2.37,32.83,3.6,10.92-1.27,16.66-2.12,17.55l-.9,1.11,22,12.15C112.07,137.29,125.57,123.51,132.64,115.49ZM93.58,154.94l7.24-11.31-.38-.21h-.06a2.06,2.06,0,0,1-1-.25L75,129.8a2,2,0,0,1-.88-1l-2-1.13L49.3,154.94Zm4.09-59.75V34.06H96.49A2.54,2.54,0,0,0,94,36.6v56a2.54,2.54,0,0,0,2.54,2.54Z" transform="translate(-0.5 -0.5)"/>
    <path class="cls-2" d="M141.16,102.88a3.62,3.62,0,0,1,.82,2,1,1,0,0,1-.24.85l-7.37,5.79c-.4.32-1.69,0-2.65-1.24s-.94-2.58-.58-2.87l7.37-5.79a.67.67,0,0,1,.41-.11A3.22,3.22,0,0,1,141.16,102.88Z" transform="translate(-0.5 -0.5)"/>
    <path class="cls-2" d="M140.38,91.09a2.29,2.29,0,0,1,.34,1.92,4.29,4.29,0,0,1-1.59,2.38l-12.53,9.85a4.3,4.3,0,0,1-2.63,1,2.31,2.31,0,0,1-1.84-.78c-.88-1.11-.31-3.09,1.24-4.3L133,93.57l.13-.08,2.93-2.31a4.27,4.27,0,0,1,2.48-.87A2.31,2.31,0,0,1,140.38,91.09Z" transform="translate(-0.5 -0.5)"/>
    <path class="cls-2" d="M137.42,81.67c1,1.28,1,2.59.59,2.87l-4.32,3.39-.26.19-2.84,2.23c-.45.27-1.68-.09-2.6-1.26s-1-2.55-.58-2.87l7.37-5.79a.67.67,0,0,1,.41-.11A3.2,3.2,0,0,1,137.42,81.67Z" transform="translate(-0.5 -0.5)"/>
    <path class="cls-2" d="M136,71.21c1,1.26,1,2.54.6,2.85l-5.4,3.84-.08.06c-.4.31-1.69,0-2.65-1.25s-1-2.5-.6-2.85l5.4-3.83.08-.06C133.73,69.65,135,70,136,71.21Z" transform="translate(-0.5 -0.5)"/>
    <path class="cls-2" d="M129.25,36.6V68l-3.78,2.68-.08.06c-2.34,1.84-2.39,5.58-.09,8.5a7.83,7.83,0,0,0,2.14,1.9l-2.51,2c-2.35,1.85-2.39,5.58-.1,8.5a8.38,8.38,0,0,0,1.94,1.79l-2.34,1.84H107.17V34.06H126.7A2.55,2.55,0,0,1,129.25,36.6Zm-5,11.43a4.56,4.56,0,1,0-7.3,0,4.56,4.56,0,1,0,7.3,0Z" transform="translate(-0.5 -0.5)"/>
    <path class="cls-1" d="M125.16,45.3a4.52,4.52,0,0,1-.91,2.73,4.56,4.56,0,1,1-7.3,0,4.56,4.56,0,1,1,8.21-2.73Z" transform="translate(-0.5 -0.5)"/>
    <path class="cls-2" d="M99.41,143.18a2.06,2.06,0,0,0,1,.25h.06l.38.21-7.24,11.31H49.3L72,127.71l2,1.13a2,2,0,0,0,.88,1Z" transform="translate(-0.5 -0.5)"/>
    <path class="cls-2" d="M97.67,34.06V95.19H96.49A2.54,2.54,0,0,1,94,92.65v-56a2.54,2.54,0,0,1,2.54-2.54Z" transform="translate(-0.5 -0.5)"/>
    <path class="cls-2" d="M89.94,53.53V92.65a6.57,6.57,0,0,0,6.55,6.56h23.13c-2.22,2.62-2.58,6.24-.65,8.7a6.29,6.29,0,0,0,5,2.32,8,8,0,0,0,3.07-.64,7.92,7.92,0,0,0,1.53,3.18,7.51,7.51,0,0,0,4.07,2.72c-7.07,8-20.57,21.8-31.44,23.77l-22-12.15.9-1.11c.85-.89,5.72-6.63,2.12-17.55-3.47-10.53-.5-21.86,2.37-32.83l.66-2.5c.48-1.85.9-3.38,1.28-4.7,1.62-5.8,2.24-8,1-15.88A2.7,2.7,0,0,1,89.94,53.53Z" transform="translate(-0.5 -0.5)"/>
  </g>
</svg>
