<svg id="Layer_1" data-name="Layer 1" xmlns="http://www.w3.org/2000/svg" viewBox="0 0 57.79 61.9">
  <title>gears</title>
  <path d="M30.94,45.1a12.1,12.1,0,0,0,.1-1.9,11.48,11.48,0,0,0-.1-1.9l3.9-2.8a1,1,0,0,0,.3-1.3l-3.8-6.4a.87.87,0,0,0-1.1-.4l-4.3,2.1a13.5,13.5,0,0,0-3.3-1.9l-.4-4.7a.86.86,0,0,0-.8-.8H14a.86.86,0,0,0-.8.8l-.6,4.9a10.91,10.91,0,0,0-3.3,1.9L5,30.8c-.4-.1-1,0-1.1.4L.14,37.6a1,1,0,0,0,.3,1.3l3.9,2.8a12.1,12.1,0,0,0-.1,1.9,11.48,11.48,0,0,0,.1,1.9L.44,48.3a1,1,0,0,0-.3,1.3L3.94,56a.87.87,0,0,0,1.1.4l4.3-1.9a13.5,13.5,0,0,0,3.3,1.9l.4,4.7a.86.86,0,0,0,.8.8h7.4a.86.86,0,0,0,.8-.8l.4-4.7a10.91,10.91,0,0,0,3.3-1.9L30,56.4c.4.1,1,0,1.1-.4l3.8-6.4a1,1,0,0,0-.3-1.3Zm-13.4,5a6.9,6.9,0,1,1,6.9-6.9A6.85,6.85,0,0,1,17.54,50.1Z"/>
  <path d="M53.54,18.5a5.84,5.84,0,0,0,.2-1.8,11.48,11.48,0,0,0-.1-1.8l3.5-2.5a1,1,0,0,0,.3-1.1l-3.5-6c-.3-.4-.7-.6-1.1-.3l-4,1.8A15.72,15.72,0,0,0,45.74,5L45.24.7c.1-.4-.1-.7-.6-.7h-6.8a.77.77,0,0,0-.8.7L36.64,5a10.88,10.88,0,0,0-3.1,1.8l-4-1.8a1.13,1.13,0,0,0-1.1.3l-3.5,6c-.3.4-.1.8.3,1.1l3.5,2.5v1.8a12.13,12.13,0,0,0,.1,1.8L25.34,21a1,1,0,0,0-.3,1.1l3.5,6c.3.4.7.6,1.1.3l4-1.8a15.72,15.72,0,0,0,3.1,1.8l.4,4.3a.77.77,0,0,0,.8.7h6.8a.77.77,0,0,0,.8-.7l.4-4.3A10.88,10.88,0,0,0,49,26.6l4,1.8a1.13,1.13,0,0,0,1.1-.3l3.5-6c.3-.4.1-.8-.3-1.1Zm-12.4,5.2A6.9,6.9,0,1,1,48,16.8,6.85,6.85,0,0,1,41.14,23.7Z"/>
</svg>
