<?xml version="1.0" encoding="UTF-8"?>
<svg width="122px" height="83px" viewBox="0 0 122 83" version="1.1" xmlns="http://www.w3.org/2000/svg" xmlns:xlink="http://www.w3.org/1999/xlink">
    <!-- Generator: Sketch 45.2 (43514) - http://www.bohemiancoding.com/sketch -->
    <title>Fill 1</title>
    <desc>Created with Sketch.</desc>
    <defs>
        <path d="M72.4271944,36.1309757 C71.6378426,35.3602936 70.4093241,35.2692304 69.5214228,35.9172168 C66.4635216,38.140117 59.5612377,43.0345232 55.4336451,44.4838656 C47.3726883,47.3125755 40.5325957,43.4198643 39.0639228,37.9704519 C38.1434907,34.5618133 39.5078735,31.2164397 42.5399414,29.4421455 C47.3631204,26.6201455 50.465034,22.852047 54.2864537,18.1177202 C50.9625648,15.5334431 47.830034,14.6084329 44.7635216,14.6084329 C36.6040154,14.6084329 28.8932438,21.1553962 19.2344475,20.5122026 C12.6651265,20.0741408 4.59268827,18.5759118 4.59268827,18.5759118 L4.59268827,48.9267902 C11.6518858,50.4643201 16.337287,51.1506489 23.3476883,54.6733561 L25.5578735,51.6855253 C27.3001883,49.3111727 30.0987994,47.8925042 33.0418858,47.8925042 C37.2020093,47.8925042 40.8014537,50.6637005 41.9457747,54.5439505 C46.4962685,54.5439505 49.9187068,57.4234641 51.0285833,61.1915626 C54.978213,61.0372345 58.8771327,63.6771082 60.1056512,67.8238378 C65.7067006,67.8238378 69.7548796,72.2380056 69.5826574,77.4468194 L75.1741389,83.0448086 C76.9308056,84.8047243 79.7810833,84.8047243 81.542534,83.0448086 C83.2992006,81.2801 83.2992006,78.425509 81.542534,76.6655932 L73.4739228,68.5820586 C72.4224105,67.5247671 74.015466,65.9287651 75.0669784,66.9860565 L84.7889228,76.7259825 C86.5455895,78.490691 89.3958673,78.490691 91.152534,76.7259825 C92.9130278,74.9612739 92.9130278,72.1066829 91.152534,70.3467671 L79.1926574,58.3551842 C78.1363611,57.3065198 79.7294167,55.705725 80.780929,56.763975 L93.6985525,69.7054906 C95.4600031,71.4654064 98.3093241,71.4654064 100.065991,69.7054906 C101.770991,67.9925443 101.785343,65.2826958 100.187503,63.5131944 C95.0667623,58.4587087 77.5527191,41.1452019 72.4271944,36.1309757 Z M69.0640772,80.1096985 C68.3072562,82.3095932 66.1066389,84.9072902 64.5040154,87.0793867 C65.923892,88.2124043 67.409787,88.6849743 68.7225031,88.6849743 C72.1516389,88.6849743 74.4087068,85.4642135 71.3154043,82.3661482 L69.0640772,80.1096985 Z M119.407503,19.4251958 C119.407503,19.4251958 111.969417,20.8678283 106.653491,21.7209465 C96.3842623,23.3687107 86.825929,19.7271421 76.2208673,14.2374702 C74.0910525,13.1370436 71.6378426,12.0001917 69.2410833,12.0001917 C67.0318549,12.0001917 64.8733364,13.0047624 63.0583056,15.0637488 C56.5243858,22.4791673 52.7268858,29.0347576 44.952966,33.5812067 C41.119108,35.823278 45.6208056,42.8485626 53.852071,39.9613806 C58.0523796,38.4871156 62.1589228,35.6737427 66.7983981,31.9248154 C70.4418549,28.9791611 72.6329043,29.4114716 75.7864846,32.5737603 C81.7099722,38.5082039 101.640867,58.2200273 101.640867,58.2200273 C107.942287,54.3234818 113.231423,51.9270823 119.407503,49.6313317 L119.407503,19.4251958 Z M36.6719475,59.866833 C38.1434907,57.8596088 37.7177191,55.039526 35.7027191,53.5623853 C33.6982438,52.0833276 30.8833673,52.5185137 29.4118241,54.5247793 L24.270034,61.4772135 C22.7984907,63.4853962 23.2328735,66.312189 25.2373488,67.7864539 C27.2437377,69.2511333 30.0586142,68.8255327 31.5301574,66.81735 L36.6719475,59.866833 Z M45.755713,66.5086937 C47.2320401,64.5100966 46.7928735,61.678511 44.7864846,60.2042461 C42.7867932,58.7395667 39.9680895,59.1699601 38.5003735,61.1771842 L33.3193549,68.1794635 C31.8478117,70.1876462 32.3175957,72.9444641 34.322071,74.4331075 C36.3380278,75.9073724 39.1060216,75.5277827 40.5794784,73.5157658 L45.755713,66.5086937 Z M54.8423488,73.1591815 C56.3167623,71.1567501 55.8823796,68.3337916 53.8807747,66.849941 C51.8667315,65.3756761 49.0566389,65.815655 47.5803117,67.8238378 L42.4480895,74.769562 C40.9717623,76.7777447 41.410929,79.6045375 43.4154043,81.0788024 C45.4122253,82.5482746 48.2347562,82.122674 49.708213,80.1096985 L54.8423488,73.1591815 Z M58.7881512,86.7659376 C57.9031204,87.973723 56.5406512,88.6102067 55.1580895,88.6102067 C54.2309599,88.6102067 53.2961759,88.319763 52.4905586,87.7350416 C50.4860833,86.2559838 50.054571,83.4378181 51.5232438,81.4258011 L56.6765154,74.4513201 C58.1499722,72.452723 60.9648488,72.0175368 62.9693241,73.4965946 C64.9833673,74.9612739 65.4148796,77.7890253 63.9318549,79.7914567 L58.7881512,86.7659376 Z" id="path-1"></path>
    </defs>
    <g id="Symbols" stroke="none" stroke-width="1" fill="none" fill-rule="evenodd">
        <g id="Business-Solutions" transform="translate(-1.000000, -9.000000)">
            <g id="Page-1">
                <g id="Fill-1">
                    <use fill="#404B97" fill-rule="evenodd" xlink:href="#path-1"></use>
                    <path stroke="#FFFFFF" stroke-width="3" d="M93.6473442,71.5789927 C94.3689581,73.6811506 93.8913985,76.1044217 92.2156136,77.7842176 C89.9970505,80.0129372 86.4687684,80.1313066 84.1123069,78.1405525 C84.7166748,80.1842008 84.2136395,82.487654 82.6027317,84.1059309 C80.2553599,86.4512573 76.4549357,86.4512573 74.112862,84.1048517 L68.0619955,78.0469428 L68.0834766,77.3972511 C68.2311274,72.931594 64.7549536,69.3238378 60.1056512,69.3238378 L58.9856002,69.3238378 L58.6674406,68.249925 C57.6615194,64.854548 54.449072,62.5590549 51.0871498,62.6904189 L49.9197854,62.7360325 L49.5897019,61.6153787 C48.6145891,58.3048114 45.6469969,56.0439505 41.9457747,56.0439505 L40.8242695,56.0439505 L40.5070351,54.9682479 C39.5390556,51.6859503 36.4957777,49.3925042 33.0418858,49.3925042 C30.5767903,49.3925042 28.2271381,50.5834121 26.7637925,52.5775786 L23.8025884,56.5806717 L22.6741916,56.0136554 C19.5316452,54.4345346 16.7595791,53.3771467 13.6803981,52.5266211 C12.2748184,52.1383745 10.8343927,51.7968306 8.84299657,51.3670436 C8.3648993,51.2638597 5.25476314,50.6061606 4.27346459,50.3924287 L3.09268827,50.1352495 L3.09268827,16.7718985 L4.86641087,17.101098 C4.94931194,17.1164842 5.11113733,17.1459195 5.34435122,17.1873944 C5.73497128,17.2568625 6.18195566,17.3343611 6.67775725,17.4178802 C8.0955203,17.6567062 9.61845368,17.8955939 11.1859059,18.1184594 C12.9313485,18.366632 14.623975,18.5792722 16.221912,18.7454836 C17.3223121,18.8599431 18.3630473,18.9507638 19.334114,19.0155174 C23.2942122,19.2792262 26.4893402,18.4882375 32.6144854,16.1789883 C36.6266713,14.6663486 37.8588226,14.2368132 39.8564826,13.7494919 C41.5855527,13.3276919 43.1915497,13.1084329 44.7635216,13.1084329 C48.4133255,13.1084329 51.8247316,14.303742 55.2071493,16.9335245 L56.4131418,17.8711668 L55.4536618,19.0598589 C50.1399248,25.6430057 47.6121715,28.2123135 43.2975273,30.7367742 C40.8500424,32.1689843 39.7678901,34.823543 40.5122448,37.5801142 C41.8683871,42.6119896 48.1772474,45.4405684 54.9366886,43.0685797 C58.0633787,41.9706893 62.9839332,38.8151075 68.6371672,34.7055684 C70.1173367,33.6253472 72.1624771,33.7761358 73.4750861,35.0576989 L73.4761491,35.0587378 C75.7440843,37.2774258 80.4795208,41.9440653 87.359682,48.7362924 L87.390794,48.7670068 C90.8026067,52.1352261 100.417267,61.6323443 101.300788,62.5079105 C103.442362,64.879561 103.387182,68.4950904 101.12763,70.7651704 C99.0976439,72.7989115 95.9734002,73.0701856 93.6473442,71.5789927 Z M67.6456677,79.6217287 L68.4278055,77.348244 L70.125942,79.0502443 L72.3768801,81.3063043 C76.2633056,85.1987137 73.7282681,90.1849743 68.7225031,90.1849743 C66.9685494,90.1849743 65.1697444,89.5296536 63.5684255,88.2518505 L62.4395078,87.3510091 L63.2969975,86.1888207 C63.5098559,85.9003257 63.7339029,85.6027956 64.0463611,85.19211 C64.1333306,85.0777999 64.2385134,84.9397876 64.4317993,84.6861867 C64.5870749,84.4823528 64.7041661,84.3282461 64.8183173,84.177302 C65.2805617,83.5660685 65.6347877,83.0845579 65.9577998,82.6233473 C66.8124149,81.4030911 67.3689664,80.426032 67.6456677,79.6217287 Z M119.121897,17.952637 L120.907503,17.606315 L120.907503,50.6740349 L119.930139,51.0373374 C113.252375,53.5195721 108.206493,55.9237205 102.429765,59.4958175 L101.425558,60.1167788 L100.586085,59.2865326 C100.532344,59.2333827 100.532344,59.2333827 100.277218,58.9810305 C99.928111,58.6357009 99.928111,58.6357009 99.4044687,58.1176637 C98.4646103,57.1878349 97.4173457,56.1515397 96.2895245,55.0352725 C93.0671585,51.8459179 89.8447835,48.6546286 86.8371743,45.6733369 L86.790331,45.6269032 C81.1316604,40.01769 76.913679,35.8263226 74.7243629,33.632957 C71.9729162,30.8739123 70.6431824,30.7452993 67.7411562,33.0915232 C62.395893,37.4107623 58.3941942,39.9568548 54.3485523,41.3768333 C50.1077838,42.8643167 46.1825276,42.1213361 43.8172528,39.7552396 C41.4406957,37.3778567 41.3978716,33.9225836 44.1957107,32.2863846 C48.075444,30.0173864 50.9875586,27.2853854 54.8233984,22.667298 C55.3102836,22.0811218 55.8102671,21.4689293 56.4749041,20.6475748 C56.4860566,20.6337926 57.7957137,19.0123296 58.1827656,18.535612 C59.6245815,16.7597804 60.7456695,15.4194533 61.9330821,14.0718455 C63.9856854,11.7433549 66.5346694,10.5001917 69.2410833,10.5001917 C71.5854683,10.5001917 73.7625166,11.27891 76.9104273,12.905364 C89.3073444,19.3225834 97.6568607,21.6453271 106.415807,20.2398974 C107.522521,20.062288 108.774045,19.8505942 110.143614,19.6104511 C110.527715,19.543102 110.919723,19.4737546 111.318875,19.4025705 C113.097147,19.0854363 114.941919,18.7454962 116.745851,18.405541 C117.377268,18.286549 117.958409,18.1760677 118.475891,18.0769408 C118.786064,18.0175253 119.005857,17.9751433 119.121897,17.952637 Z M37.8816761,60.7537134 L37.8778425,60.758919 L32.7400878,67.703955 C30.7809822,70.3775035 27.0295977,70.9519714 24.348612,68.9948194 C21.67728,67.0300902 21.0997519,63.2658574 23.0640214,60.5852865 L28.2022976,53.6376234 C30.1656332,50.9608602 33.9220411,50.3843159 36.5895592,52.3526272 C39.2702714,54.317783 39.844832,58.0759164 37.8816761,60.7537134 Z M46.9622359,67.3999302 L46.9622163,67.3999568 L41.7896657,74.4020201 C39.8300272,77.0779221 36.1255,77.6102549 33.4277381,75.637337 C30.7566935,73.6536594 30.1534256,69.9621672 32.1135371,67.2872733 L37.289545,60.2918061 C39.2451259,57.6173861 43.0025274,57.0382551 45.6746709,58.995476 C48.3499778,60.9612521 48.9315663,64.7339235 46.9622359,67.3999302 Z M56.0502384,74.0485648 L56.0488787,74.0504085 L50.9186014,80.995678 C48.9573614,83.6750428 45.194886,84.2507253 42.5266676,82.2871679 C39.8534365,80.321042 39.2736814,76.5551464 41.2416946,73.8781522 L46.3717554,66.9353606 C48.3390876,64.2592854 52.0866071,63.6777044 54.7740747,65.6449452 C57.4398733,67.6211826 58.0145673,71.3807693 56.0502384,74.0485648 Z M59.9966252,87.6545293 C58.8496477,89.2184689 57.0542167,90.1102067 55.1580895,90.1102067 C53.8963665,90.1102067 52.6567121,89.709089 51.5999501,88.9420281 C48.9314102,86.9729718 48.3562823,83.2202381 50.3168325,80.5344136 L55.4691643,73.5612059 C57.43608,70.893281 61.1909839,70.3202501 63.8515504,72.2834677 C66.5397194,74.2383939 67.1163635,78.0119503 65.1390573,80.6817726 L59.9966252,87.6545293 Z"></path>
                </g>
            </g>
        </g>
    </g>
</svg>