<svg id="Layer_1" data-name="Layer 1" xmlns="http://www.w3.org/2000/svg" viewBox="0 0 76.44 95.67">
  <title>icon2</title>
  <path d="M54.21,15.37a3.39,3.39,0,1,0,6.1-2,3.39,3.39,0,1,0-5.42,0A3.37,3.37,0,0,0,54.21,15.37Z"/>
  <path d="M75.19,52.21a6,6,0,0,0-1.8-1.54,6.12,6.12,0,0,0,2-3.29,4.65,4.65,0,0,0-.82-3.91A4.38,4.38,0,0,0,73,42.18c1.12-1.48,1-3.81-.53-5.7A6.06,6.06,0,0,0,71,35.19l.17-.12.06,0c1.74-1.37,1.77-4.14.07-6.31a5.26,5.26,0,0,0-4-2.15l-.35,0V4.87A4.87,4.87,0,0,0,62.12,0H39.7a4.87,4.87,0,0,0-4.87,4.87v9.08a5.39,5.39,0,0,0-4.18.48A1.49,1.49,0,0,0,29.93,16c1.08,6.21.78,7.27-.46,11.71-.28,1-.6,2.15-1,3.55L28,33.07c-2.14,8.16-4.56,17.4-1.71,26.06,2.24,6.78-.77,9.9-.88,10l-.13.14-1,1.29-2.34-1.29a1.49,1.49,0,0,0-1.86.35L.35,93.23a1.49,1.49,0,0,0,1.14,2.44H38.35A1.49,1.49,0,0,0,39.61,95l6.67-10.41a1.5,1.5,0,0,0,.19-1.17c0-.05,0-.1-.06-.15C58,79.1,71.06,62.77,72.38,61.08A4.7,4.7,0,0,0,73.27,60l1.85-1.45a3.66,3.66,0,0,0,1.32-3.1A5.66,5.66,0,0,0,75.19,52.21Zm-1.91,4-5.47,4.3c-.3.24-1.25,0-2-.92s-.7-1.92-.43-2.13l5.47-4.3a.49.49,0,0,1,.3-.08,2.38,2.38,0,0,1,1.66,1,2.71,2.71,0,0,1,.61,1.5A.77.77,0,0,1,73.28,56.18ZM63.08,43.82c-.72-.92-.74-1.89-.43-2.13l5.47-4.3a.49.49,0,0,1,.3-.08,2.38,2.38,0,0,1,1.66,1c.74.95.7,1.92.43,2.13L67.31,43l-.2.14L65,44.76C64.67,45,63.76,44.69,63.08,43.82Zm-3.43,8.93,7.14-5.6.1-.06,2.18-1.71a3.17,3.17,0,0,1,1.84-.65,1.72,1.72,0,0,1,1.37.58,1.7,1.7,0,0,1,.25,1.42,3.22,3.22,0,0,1-1.18,1.77L62,55.81a3.21,3.21,0,0,1-1.95.72A1.72,1.72,0,0,1,58.73,56C58.08,55.12,58.5,53.66,59.65,52.75ZM69,30.56c.73.93.71,1.88.45,2.11l-4,2.85-.06,0c-.3.23-1.25,0-2-.92s-.74-1.85-.45-2.11l4-2.85.06,0C67.33,29.4,68.29,29.65,69,30.56ZM64,4.87V28.13l-2.8,2-.06,0c-1.74,1.37-1.77,4.14-.07,6.31a6,6,0,0,0,1.59,1.41l-1.86,1.46c-1.74,1.37-1.77,4.14-.07,6.31A6.09,6.09,0,0,0,62.17,47l-1.74,1.37H47.62V3h14.5A1.89,1.89,0,0,1,64,4.87ZM39.7,3h.87V48.35H39.7a1.89,1.89,0,0,1-1.89-1.89V16.92h0v-12A1.89,1.89,0,0,1,39.7,3ZM37.54,92.69H4.67L21.55,72.48l1.51.84a1.49,1.49,0,0,0,.65.72L41.87,84a1.48,1.48,0,0,0,.72.18h0l.28.16ZM43.2,81.06,26.9,72l.67-.83c.63-.66,4.24-4.92,1.57-13-2.58-7.82-.37-16.23,1.76-24.37L31.39,32c.36-1.37.67-2.51,1-3.49,1.21-4.31,1.67-5.94.74-11.78a2,2,0,0,1,1.76.73v29a4.87,4.87,0,0,0,4.87,4.87H56.86a5.13,5.13,0,0,0-.48,6.46,4.66,4.66,0,0,0,3.71,1.72A5.91,5.91,0,0,0,62.37,59a5.91,5.91,0,0,0,1.14,2.36,5.58,5.58,0,0,0,3,2C61.29,69.36,51.26,79.59,43.2,81.06Z"/>
</svg>
