<svg id="Layer_1" data-name="Layer 1" xmlns="http://www.w3.org/2000/svg" viewBox="0 0 278.81 199.69">
  <title>icon3</title>
  <g>
    <path d="M229.48,74.87A18.15,18.15,0,0,1,220,79.48l41.33,41.33a4.84,4.84,0,0,1,0,6.83l-9.08,9.08L145.73,30.24l9.07-9.08a4.84,4.84,0,0,1,6.83,0l37.12,37.12a18.23,18.23,0,0,1,4.65-9.49L168.7,14.09a14.85,14.85,0,0,0-21,0L132.67,29.15a27.27,27.27,0,0,0-2.62-2,48.18,48.18,0,0,0-9-4.77L12.73,10.71C4.59,9.75,0,10.48,0,17.17v71c0,23,27.1,36.44,45.74,30.27,7.22-1.85,20.82-11.84,26.33-11h0l60.47,15c11.6,2.2,19.29,2,22.45-6.32,7.71-20.37-10.65-28.68-36-35.94a14.82,14.82,0,0,1-4.3-3c-2.92-3.07-2.65-7.37-1.81-11.21.72-3.31,5.7-8.15,6.9-9.76l12-12L238.3,150.62l-37.66,37.66a4.84,4.84,0,0,1-6.83,0L140.12,134.6,73.43,118.1a17.07,17.07,0,0,0,16.38,18,17.13,17.13,0,0,0,26.36,20.66l.23.23a17.12,17.12,0,0,0,29.52,12.55c2.41-2.6,4.81-5.2,7.16-7.85l33.65,33.65a14.85,14.85,0,0,0,21,0l60.64-60.64a14.85,14.85,0,0,0,0-21Z"/>
    <path d="M220.81.06c-.54,0-1.07-.06-1.57-.06-13.63,0-11.22,14,1,14h.11c23.94.7,43.47,20.4,44.13,44.5.21,6.74,4,10.41,7.62,10.41,3.39,0,6.64-3.19,6.74-10.05C275.49,24.55,253.73,2.6,220.81.06Z"/>
    <path d="M212.93,37.72c15.56.67,27.19,12.4,27.29,27.51.05,2.89,2.63,4.68,5.39,4.68,3.38,0,7.05-2.68,6.75-9.27.22-17.21-16.78-34.35-34.88-35.18H217C205.83,25.45,207,37.4,212.93,37.72Z"/>
    <path d="M217.11,71.72a10.22,10.22,0,0,0,6.72-2.51c.18-.16.37-.32.55-.49a10.63,10.63,0,0,0,.35-15,10.47,10.47,0,0,0-7.46-3.16,10.83,10.83,0,0,0-7.65,3.24c-.2.19-.37.4-.55.61a10.31,10.31,0,0,0,.65,14.22A10.43,10.43,0,0,0,217.11,71.72Z"/>
  </g>
</svg>
