<?xml version="1.0" encoding="UTF-8"?>
<svg width="158px" height="57px" viewBox="0 0 158 57" version="1.1" xmlns="http://www.w3.org/2000/svg" xmlns:xlink="http://www.w3.org/1999/xlink">
    <!-- Generator: Sketch 45.2 (43514) - http://www.bohemiancoding.com/sketch -->
    <title>XCore_Logo_Tagline_RGB Copy</title>
    <desc>Created with Sketch.</desc>
    <defs></defs>
    <g id="Symbols" stroke="none" stroke-width="1" fill="none" fill-rule="evenodd">
        <g id="Top-Nav" transform="translate(-166.000000, -29.000000)">
            <g id="Group-3">
                <g id="XCore_Logo_Tagline_RGB-Copy" transform="translate(166.000000, 29.000000)">
                    <polyline id="Fill-1" fill="#969696" points="3.22274776 56.8775347 2.40448301 56.8775347 2.40448301 50.4735 0 50.4735 0 49.727703 5.62694812 49.727703 5.62694812 50.4735 3.22274776 50.4735 3.22274776 56.8775347"></polyline>
                    <polyline id="Fill-3" fill="#969696" points="9.99809302 53.6601386 9.99809302 56.8775347 9.19000358 56.8775347 9.19000358 49.727703 9.99809302 49.727703 9.99809302 52.9041832 14.1312487 52.9041832 14.1312487 49.727703 14.9393381 49.727703 14.9393381 56.8775347 14.1312487 56.8775347 14.1312487 53.6601386 9.99809302 53.6601386"></polyline>
                    <polyline id="Fill-4" fill="#969696" points="24.1906762 50.4627772 19.8223578 50.4627772 19.8223578 52.9041832 23.7305259 52.9041832 23.7305259 53.6398218 19.8223578 53.6398218 19.8223578 56.1421782 24.2418354 56.1421782 24.2418354 56.8775347 19.0139857 56.8775347 19.0139857 49.727703 24.1906762 49.727703 24.1906762 50.4627772"></polyline>
                    <path d="M35.653449,50.4735 L33.8425259,50.4735 L33.8425259,53.619505 L35.6118998,53.619505 C36.7990197,53.619505 37.5763005,52.986297 37.5763005,52.0359208 C37.5763005,51.0045594 36.8094776,50.4735 35.653449,50.4735 Z M35.5816565,54.3545792 L33.8425259,54.3545792 L33.8425259,56.8775347 L33.0341538,56.8775347 L33.0341538,49.727703 L35.7147835,49.727703 C37.3312451,49.727703 38.3951306,50.5858069 38.3951306,52.0054455 C38.3951306,53.5577079 37.105975,54.3545792 35.5816565,54.3545792 L35.5816565,54.3545792 Z" id="Fill-5" fill="#969696"></path>
                    <path d="M45.241703,50.3510347 C43.6048909,50.3510347 42.4386869,51.6583663 42.4386869,53.2927426 C42.4386869,54.9271188 43.6252415,56.2547673 45.2623363,56.2547673 C46.8994311,56.2547673 48.0656351,54.9474356 48.0656351,53.3130594 C48.0656351,51.6786832 46.8787979,50.3510347 45.241703,50.3510347 Z M45.241703,56.9997178 C43.0627728,56.9997178 41.5995063,55.2945149 41.5995063,53.3130594 C41.5995063,51.331604 43.0831234,49.6049554 45.2623363,49.6049554 C47.4412665,49.6049554 48.9045331,51.3104406 48.9045331,53.2927426 C48.9045331,55.274198 47.4209159,56.9997178 45.241703,56.9997178 L45.241703,56.9997178 Z" id="Fill-6" fill="#969696"></path>
                    <polyline id="Fill-7" fill="#969696" points="56.632966 49.7073861 57.2977531 49.7073861 59.2621538 55.6825099 61.308805 49.727703 62.1578784 49.727703 59.5999177 56.9288911 58.9142147 56.9288911 56.949814 51.1270248 54.9755206 56.9288911 54.3002755 56.9288911 51.7423148 49.727703 52.6224794 49.727703 54.6685653 55.6825099 56.632966 49.7073861"></polyline>
                    <polyline id="Fill-8" fill="#969696" points="70.8467478 50.4627772 66.478712 50.4627772 66.478712 52.9041832 70.3868801 52.9041832 70.3868801 53.6398218 66.478712 53.6398218 66.478712 56.1421782 70.8981896 56.1421782 70.8981896 56.8775347 65.6703399 56.8775347 65.6703399 49.727703 70.8467478 49.727703 70.8467478 50.4627772"></polyline>
                    <path d="M77.5912844,50.4735 L75.3818283,50.4735 L75.3818283,53.3742921 L77.5813918,53.3742921 C78.6557352,53.3742921 79.4228408,52.8226337 79.4228408,51.8931386 C79.4228408,51.0045594 78.7473131,50.4735 77.5912844,50.4735 Z M79.5050912,56.8775347 L77.4279141,54.0994901 L75.3818283,54.0994901 L75.3818283,56.8775347 L74.5737388,56.8775347 L74.5737388,49.727703 L77.652619,49.727703 C79.2283792,49.727703 80.2413882,50.5753663 80.2413882,51.862099 C80.2413882,53.0574059 79.4228408,53.7518465 78.2973381,53.9561436 L80.4971843,56.8775347 L79.5050912,56.8775347 L79.5050912,56.8775347 Z" id="Fill-9" fill="#969696"></path>
                    <path d="M92.4608086,50.3510347 C90.8237138,50.3510347 89.6577925,51.6583663 89.6577925,53.2927426 C89.6577925,54.9271188 90.8440644,56.2547673 92.4811592,56.2547673 C94.118254,56.2547673 95.2847406,54.9474356 95.2847406,53.3130594 C95.2847406,51.6786832 94.0979034,50.3510347 92.4608086,50.3510347 Z M92.4608086,56.9997178 C90.2815957,56.9997178 88.8183292,55.2945149 88.8183292,53.3130594 C88.8183292,51.331604 90.3019463,49.6049554 92.4811592,49.6049554 C94.6603721,49.6049554 96.123356,51.3104406 96.123356,53.2927426 C96.123356,55.274198 94.6400215,56.9997178 92.4608086,56.9997178 L92.4608086,56.9997178 Z" id="Fill-10" fill="#969696"></path>
                    <polyline id="Fill-11" fill="#969696" points="105.02732 50.4735 100.689245 50.4735 100.689245 53.0269307 104.566887 53.0269307 104.566887 53.7622871 100.689245 53.7622871 100.689245 56.8775347 99.8811556 56.8775347 99.8811556 49.727703 105.02732 49.727703 105.02732 50.4735"></polyline>
                    <path d="M116.325309,52.9146238 C117.921703,53.261703 118.658,53.8438366 118.658,54.9474356 C118.658,56.1830941 117.635098,56.979401 116.212816,56.979401 C115.077138,56.979401 114.146379,56.6018465 113.286565,55.8357327 L113.787982,55.2434406 C114.53502,55.9175644 115.251249,56.2547673 116.243624,56.2547673 C117.205757,56.2547673 117.840018,55.7541832 117.840018,55.0289851 C117.840018,54.3545792 117.481621,53.9767426 115.977653,53.6601386 C114.330383,53.3026188 113.57317,52.7712772 113.57317,51.5866931 C113.57317,50.4424604 114.566111,49.6258366 115.926211,49.6258366 C116.970029,49.6258366 117.716784,49.9215594 118.44347,50.5036931 L117.97258,51.1270248 C117.307792,50.5858069 116.64244,50.3510347 115.90586,50.3510347 C114.975102,50.3510347 114.381542,50.861495 114.381542,51.5150198 C114.381542,52.1998663 114.749832,52.5774208 116.325309,52.9146238" id="Fill-12" fill="#969696"></path>
                    <polyline id="Fill-13" fill="#969696" points="125.79146 54.9166782 125.750476 54.9166782 123.141921 51.0962673 123.141921 56.8775347 122.354182 56.8775347 122.354182 49.727703 123.172165 49.727703 125.781567 53.6293812 128.390122 49.727703 129.208669 49.727703 129.208669 56.8775347 128.40058 56.8775347 128.40058 51.0861089 125.79146 54.9166782"></polyline>
                    <path d="M136.301145,50.616 L134.664333,54.2625891 L137.928347,54.2625891 L136.301145,50.616 Z M139.954082,56.8775347 L139.084376,56.8775347 L138.245195,54.9883515 L134.347485,54.9883515 L133.498129,56.8775347 L132.669689,56.8775347 L135.933138,49.6763465 L136.690351,49.6763465 L139.954082,56.8775347 L139.954082,56.8775347 Z" id="Fill-14" fill="#969696"></path>
                    <path d="M146.432365,50.4735 L144.222909,50.4735 L144.222909,53.3742921 L146.422472,53.3742921 C147.497098,53.3742921 148.263921,52.8226337 148.263921,51.8931386 C148.263921,51.0045594 147.588676,50.4735 146.432365,50.4735 Z M148.346172,56.8775347 L146.268995,54.0994901 L144.222909,54.0994901 L144.222909,56.8775347 L143.414537,56.8775347 L143.414537,49.727703 L146.493699,49.727703 C148.06946,49.727703 149.082469,50.5753663 149.082469,51.862099 C149.082469,53.0574059 148.263921,53.7518465 147.138701,53.9561436 L149.337982,56.8775347 L148.346172,56.8775347 L148.346172,56.8775347 Z" id="Fill-15" fill="#969696"></path>
                    <polyline id="Fill-16" fill="#969696" points="155.498569 56.8775347 154.680587 56.8775347 154.680587 50.4735 152.276104 50.4735 152.276104 49.727703 157.903052 49.727703 157.903052 50.4735 155.498569 50.4735 155.498569 56.8775347"></polyline>
                    <path d="M61.2333381,40.1514208 C50.4486369,40.1514208 42.4686476,31.5921089 42.4686476,20.7722673 L42.4686476,20.6647574 C42.4686476,10.0060396 50.4486369,1.1775297 61.3401789,1.1775297 C68.0810411,1.1775297 72.1248801,3.65392574 76.00761,7.20683168 L74.0124007,9.25234158 C70.7235134,6.07642574 66.947907,3.7075396 61.2867585,3.7075396 C52.2279034,3.7075396 45.3802004,11.0828317 45.3802004,20.5569653 L45.3802004,20.6647574 C45.3802004,30.1930693 52.3364401,37.6216931 61.3401789,37.6216931 C66.7870805,37.6216931 70.507288,35.5222871 74.3360322,31.7543614 L76.2229875,33.584005 C72.2322862,37.513901 67.9185188,40.1514208 61.2333381,40.1514208" id="Fill-17" fill="#59595B"></path>
                    <path d="M105.125964,25.7783911 C105.125964,19.1573614 100.165216,13.8817574 93.8019714,13.8817574 C87.2776172,13.8817574 82.5859499,19.2109752 82.5859499,25.6711634 L82.5859499,25.7783911 C82.5859499,32.4002673 87.5469803,37.6753069 93.9102254,37.6753069 C100.43458,37.6753069 105.125964,32.3458069 105.125964,25.8861832 L105.125964,25.7783911 Z M93.8019714,40.1514208 C85.660025,40.1514208 79.7286655,33.584005 79.7286655,25.8861832 L79.7286655,25.7783911 C79.7286655,18.0805693 85.7142934,11.4059257 93.9102254,11.4059257 C102.051889,11.4059257 107.983249,17.9733416 107.983249,25.6711634 L107.983249,25.7783911 C107.983249,33.4762129 101.997621,40.1514208 93.8019714,40.1514208 L93.8019714,40.1514208 Z" id="Fill-18" fill="#59595B"></path>
                    <path d="M128.043313,14.5279455 C121.680351,14.5279455 116.126608,19.3187673 116.126608,28.2547871 L116.126608,39.5055149 L113.484419,39.5055149 L113.484419,12.0518317 L116.126608,12.0518317 L116.126608,19.8571634 C118.28434,14.9585495 122.86747,11.4059257 128.312959,11.6209455 L128.312959,14.5279455 L128.043313,14.5279455" id="Fill-19" fill="#59595B"></path>
                    <g id="Group-25">
                        <path d="M154.793646,24.4865792 C154.416029,18.9420594 151.235113,13.8281436 144.926136,13.8281436 C139.480648,13.8281436 135.274286,18.4036634 134.789263,24.4865792 L154.793646,24.4865792 Z M145.573116,37.6753069 C149.832898,37.6753069 152.744451,35.791203 155.009871,33.3689851 L156.843123,34.9838911 C154.039259,37.998401 150.749807,40.1514208 145.465428,40.1514208 C138.24039,40.1514208 131.985399,34.3913168 131.985399,25.8325693 L131.985399,25.7247772 C131.985399,17.7577574 137.59341,11.4059257 145.034673,11.4059257 C152.744451,11.4059257 157.651778,17.6499653 157.651778,25.7783911 L157.651778,25.8861832 C157.651778,26.2628911 157.651778,26.424297 157.597792,26.8551832 L134.789263,26.8551832 C135.274286,33.6920792 140.181331,37.6753069 145.573116,37.6753069 L145.573116,37.6753069 Z" id="Fill-20" fill="#59595B"></path>
                        <polyline id="Fill-22" fill="#404B97" points="20.9749946 9.70918812 14.2279141 0.0897326733 0.0805545617 0.0897326733 13.9008909 19.794802 28.0485331 19.794802 20.9749946 9.70918812"></polyline>
                        <polyline id="Fill-23" fill="#404B97" points="41.8691521 39.4998713 28.0485331 19.794802 20.9749946 29.8801337 20.9749946 29.8804158 27.7215098 39.4998713 41.8691521 39.4998713"></polyline>
                        <polyline id="Fill-24" fill="#2F80BF" points="27.7217925 0.0897326733 20.9749946 9.70918812 28.0485331 19.794802 41.8691521 0.0897326733 27.7217925 0.0897326733"></polyline>
                    </g>
                    <polyline id="Fill-26" fill="#2F80BF" points="28.0485331 19.794802 13.9008909 19.794802 0.0805545617 39.4998713 14.2279141 39.4998713 20.9749946 29.8804158 20.9749946 29.8801337 28.0485331 19.794802"></polyline>
                </g>
            </g>
        </g>
    </g>
</svg>