<svg id="Layer_1" data-name="Layer 1" xmlns="http://www.w3.org/2000/svg" xmlns:xlink="http://www.w3.org/1999/xlink" viewBox="0 0 38.86 41.27">
  <defs>
    <style>
      .cls-1 {
        fill: #fff;
      }

      .cls-2 {
        mask: url(#mask);
      }

      .cls-3 {
        fill: #404b97;
        stroke: #fff;
        stroke-width: 2px;
      }

      .cls-4 {
        mask: url(#mask-2-2);
      }
    </style>
    <mask id="mask" x="0" y="16.73" width="23.73" height="24.53" maskUnits="userSpaceOnUse">
      <g transform="translate(0 -0.67)">
        <g id="mask-2">
          <polygon id="path-1" class="cls-1" points="23.73 41.93 0 41.93 0 17.4 23.73 17.4 23.73 41.93"/>
        </g>
      </g>
    </mask>
    <mask id="mask-2-2" x="16.68" y="0" width="22.18" height="22.27" maskUnits="userSpaceOnUse">
      <g transform="translate(0 -0.67)">
        <g id="mask-4">
          <polygon id="path-3" class="cls-1" points="38.86 22.93 38.86 0.67 27.77 0.67 16.68 0.67 16.68 22.93 38.86 22.93"/>
        </g>
      </g>
    </mask>
  </defs>
  <title>gears</title>
  <g id="Homepage">
    <g id="Desktop-HD-_CUS-Rollover_" data-name="Desktop-HD-[CUS-Rollover]">
      <g id="Services">
        <g id="Page-1">
          <g>
            <g id="Group-3">
              <g class="cls-2">
                <path id="Fill-1" class="cls-3" d="M11.8,34.07a4.6,4.6,0,1,1,4.64-4.6,4.55,4.55,0,0,1-4.64,4.6Zm9-3.33a8,8,0,0,0,.07-1.27,7.59,7.59,0,0,0-.07-1.27l2.62-1.87a.63.63,0,0,0,.2-.87L21.08,21.2a.59.59,0,0,0-.74-.27l-2.89,1.4a9.12,9.12,0,0,0-2.22-1.27L15,17.93a.58.58,0,0,0-.54-.53h-5a.58.58,0,0,0-.54.53L8.5,21.2a7.35,7.35,0,0,0-2.22,1.27L3.39,21.2c-.27-.07-.67,0-.74.27L.1,25.73a.65.65,0,0,0,.2.87l2.62,1.87a8,8,0,0,0-.07,1.27A7.58,7.58,0,0,0,2.92,31L.3,32.87a.63.63,0,0,0-.2.87L2.65,38a.59.59,0,0,0,.74.27L6.28,37A9.1,9.1,0,0,0,8.5,38.27l.27,3.13a.58.58,0,0,0,.54.53h5a.58.58,0,0,0,.54-.53l.27-3.13A7.37,7.37,0,0,0,17.31,37l2.89,1.27c.27.07.67,0,.74-.27l2.55-4.27a.65.65,0,0,0-.2-.87Z" transform="translate(0 -0.67)"/>
              </g>
            </g>
            <g id="Group-6">
              <g class="cls-4">
                <path id="Fill-4" class="cls-3" d="M27.67,16.47a4.6,4.6,0,1,1,4.64-4.6,4.59,4.59,0,0,1-4.64,4.6ZM36,13a3.85,3.85,0,0,0,.14-1.2,7.59,7.59,0,0,0-.07-1.2l2.35-1.67a.63.63,0,0,0,.2-.73l-2.35-4c-.2-.27-.47-.4-.74-.2L32.84,5.2A10.58,10.58,0,0,0,30.76,4l-.34-2.87c.07-.27-.07-.47-.4-.47H25.45a.52.52,0,0,0-.54.47L24.64,4a7.33,7.33,0,0,0-2.09,1.2L19.87,4a.76.76,0,0,0-.74.2l-2.35,4c-.2.27-.07.53.2.73l2.35,1.67v1.2A8,8,0,0,0,19.4,13L17,14.67a.63.63,0,0,0-.2.73l2.35,4c.2.27.47.4.74.2l2.69-1.2a10.57,10.57,0,0,0,2.08,1.2L25,22.47a.52.52,0,0,0,.54.47h4.57a.52.52,0,0,0,.54-.47l.27-2.87A7.34,7.34,0,0,0,33,18.4l2.69,1.2a.76.76,0,0,0,.74-.2l2.35-4c.2-.27.07-.53-.2-.73Z" transform="translate(0 -0.67)"/>
              </g>
            </g>
          </g>
        </g>
      </g>
    </g>
  </g>
</svg>
