<svg id="Layer_1" data-name="Layer 1" xmlns="http://www.w3.org/2000/svg" viewBox="0 0 198 198">
  <defs>
    <style>
      .cls-1 {
        fill: #fff;
      }

      .cls-2 {
        fill: #2f80bf;
      }
    </style>
  </defs>
  <title>icon3</title>
  <g id="Homepage">
    <g id="Healthcare-Use-Case-Copy-2">
      <g id="Page-1">
        <path id="Fill-1" class="cls-1" d="M0,99a99,99,0,1,1,99,99A99,99,0,0,1,0,99"/>
        <path id="Fill-3" class="cls-2" d="M131.33,87.3a4.26,4.26,0,0,0,2.8-1l.23-.2a4.42,4.42,0,0,0,.15-6.23,4.35,4.35,0,0,0-3.11-1.31,4.51,4.51,0,0,0-3.18,1.35l-.23.25a4.29,4.29,0,0,0,.27,5.92,4.34,4.34,0,0,0,3.08,1.27Zm-1.74-14.15A11.49,11.49,0,0,1,140.94,84.6a2.09,2.09,0,0,0,2.24,1.95c1.41,0,2.93-1.11,2.81-3.86.09-7.16-7-14.29-14.51-14.64h-.2c-4.64,0-4.14,5-1.68,5.1Zm3.28-15.67-.65,0c-5.67,0-4.67,5.82.4,5.82h0A19.08,19.08,0,0,1,151,81.79c.08,2.81,1.66,4.33,3.17,4.33S157,84.8,157,81.94c-1.38-14.27-10.44-23.4-24.13-24.46Zm3.61,31.13a7.56,7.56,0,0,1-4,1.92l17.19,17.19a2,2,0,0,1,0,2.84l-3.78,3.77L101.63,70l3.78-3.78a2,2,0,0,1,2.84,0l15.44,15.44a7.58,7.58,0,0,1,1.93-4L111.19,63.32a6.18,6.18,0,0,0-8.73,0L96.2,69.59a10.91,10.91,0,0,0-1.09-.85,20,20,0,0,0-3.73-2L46.3,61.91c-3.39-.4-5.3-.09-5.3,2.69V94.14c0,9.57,11.28,15.16,19,12.59,3-.77,8.66-4.93,11-4.56h0l25.16,6.22c4.83.91,8,.85,9.34-2.63,3.21-8.48-4.43-11.93-15-15a6.2,6.2,0,0,1-1.79-1.27c-1.22-1.28-1.1-3.07-.75-4.66.3-1.37,2.37-3.39,2.87-4.06l5-5,44.3,44.3-15.67,15.67a2,2,0,0,1-2.84,0L99.3,113.46,71.55,106.6a7.1,7.1,0,0,0,6.82,7.49,7.13,7.13,0,0,0,11,8.6l.1.1A7.12,7.12,0,0,0,101.71,128c1-1.08,2-2.16,3-3.26l14,14a6.18,6.18,0,0,0,8.73,0l25.23-25.23a6.18,6.18,0,0,0,0-8.73Z"/>
      </g>
    </g>
  </g>
</svg>
