<svg id="Layer_1" data-name="Layer 1" xmlns="http://www.w3.org/2000/svg" xmlns:xlink="http://www.w3.org/1999/xlink" viewBox="0 0 187.99 187.99">
  <defs>
    <style>
      .cls-1 {
        fill: #fff;
      }

      .cls-2 {
        mask: url(#mask);
      }

      .cls-3 {
        fill: #3c478f;
      }
    </style>
    <mask id="mask" x="0" y="0" width="187.99" height="187.99" maskUnits="userSpaceOnUse">
      <g transform="translate(0 -0.01)">
        <g id="mask-2">
          <polygon id="path-1" class="cls-1" points="0 94 0 0.01 187.99 0.01 187.99 94 187.99 188 0 188 0 94"/>
        </g>
      </g>
    </mask>
  </defs>
  <title>icon2</title>
  <g id="Homepage">
    <g id="Healthcare-Use-Case-Copy-2">
      <g id="Page-1">
        <g id="Group-3">
          <g class="cls-2">
            <path id="Fill-1" class="cls-1" d="M94,0A94,94,0,1,1,0,94,94,94,0,0,1,94,0Z" transform="translate(0 -0.01)"/>
          </g>
        </g>
        <g id="Group-28">
          <path id="Fill-4" class="cls-3" d="M130.21,77.62c-.39.32-1.67,0-2.61-1.23a3.57,3.57,0,0,1-.83-2.09.94.94,0,0,1,.23-.72l5.35-3.8.08-.05a.59.59,0,0,1,.4-.12A3.15,3.15,0,0,1,135,71c1,1.24.95,2.51.6,2.81l-5.35,3.8-.08.05" transform="translate(0 -0.01)"/>
          <path id="Fill-10" class="cls-3" d="M93.45,36.7A2.53,2.53,0,0,1,96,34.18h1.16V94.69H96a2.53,2.53,0,0,1-2.52-2.52V36.7Z" transform="translate(0 -0.01)"/>
          <path id="Fill-12" class="cls-3" d="M130.25,106.78l7.29-5.73a.72.72,0,0,1,.41-.11,3.17,3.17,0,0,1,2.21,1.35,3.59,3.59,0,0,1,.81,2,1,1,0,0,1-.24.84l-7.29,5.73c-.4.32-1.67,0-2.61-1.23s-.95-2.56-.59-2.84" transform="translate(0 -0.01)"/>
          <path id="Fill-16" class="cls-3" d="M127.14,88.63c-1-1.21-1-2.51-.59-2.83l7.29-5.73a.64.64,0,0,1,.41-.11,3.2,3.2,0,0,1,2.21,1.33c1,1.27.93,2.56.57,2.84l-4.27,3.36a2,2,0,0,0-.27.19l-2.81,2.2c-.44.27-1.65-.08-2.56-1.25" transform="translate(0 -0.01)"/>
          <path id="Fill-18" class="cls-3" d="M79.79,125.17c.84-.88,5.65-6.56,2.09-17.36-3.43-10.43-.49-21.64,2.36-32.49l.64-2.47c.48-1.84.89-3.35,1.27-4.65,1.29-4.63,1.95-6.93,1.49-11.72-.09-1.16-.27-2.48-.51-4a2.65,2.65,0,0,1,2.33,1V92.17A6.51,6.51,0,0,0,96,98.66h22.88a7.61,7.61,0,0,0-1.87,4.73,5.85,5.85,0,0,0,1.23,3.88,6.21,6.21,0,0,0,5,2.28,7.79,7.79,0,0,0,3-.63,8,8,0,0,0,1.51,3.15,7.5,7.5,0,0,0,4,2.69c-7,7.93-20.36,21.57-31.11,23.52l-21.73-12Z" transform="translate(0 -0.01)"/>
          <path id="Fill-22" class="cls-3" d="M138.17,94.87l-12.41,9.75a4.22,4.22,0,0,1-2.59,1,2.34,2.34,0,0,1-1.84-.77,2,2,0,0,1-.4-1.27,4,4,0,0,1,1.64-3l3.49-2.76,6-4.72.13-.08,2.91-2.28a4.2,4.2,0,0,1,2.45-.87,2.31,2.31,0,0,1,1.83.77,2,2,0,0,1,.4.95,2.89,2.89,0,0,1-.07.95,4.21,4.21,0,0,1-1.56,2.36" transform="translate(0 -0.01)"/>
          <path id="Fill-24" class="cls-3" d="M128.38,67.73l-3.73,2.65-.08.05a4.81,4.81,0,0,0-1.76,4.05,7.56,7.56,0,0,0,1.67,4.36,8.22,8.22,0,0,0,2.11,1.88l-2.48,1.95c-2.32,1.83-2.36,5.52-.09,8.41a8,8,0,0,0,1.92,1.77l-2.32,1.81H106.53V34.18h19.33a2.53,2.53,0,0,1,2.52,2.52Zm-4-22.41a4.51,4.51,0,1,0-9,0,4.47,4.47,0,0,0,.89,2.69,4.52,4.52,0,1,0,7.23,0,4.49,4.49,0,0,0,.91-2.69Z" transform="translate(0 -0.01)"/>
          <path id="Fill-26" class="cls-3" d="M49.26,153.81l22.51-26.95,2,1.11a2,2,0,0,0,.87,1l24.21,13.24a2,2,0,0,0,.95.24h.07l.37.21-7.16,11.19Z" transform="translate(0 -0.01)"/>
        </g>
      </g>
    </g>
  </g>
</svg>
