<?xml version="1.0" encoding="UTF-8"?>
<svg width="108px" height="81px" viewBox="0 0 108 81" version="1.1" xmlns="http://www.w3.org/2000/svg" xmlns:xlink="http://www.w3.org/1999/xlink">
    <!-- Generator: Sketch 45.2 (43514) - http://www.bohemiancoding.com/sketch -->
    <title>Page 1</title>
    <desc>Created with Sketch.</desc>
    <defs>
        <polygon id="path-1" points="0 198 198 198 198 0 0 0"></polygon>
    </defs>
    <g id="Homepage" stroke="none" stroke-width="1" fill="none" fill-rule="evenodd">
        <g id="Healthcare-Use-Case-Copy-2" transform="translate(-1085.000000, -3151.000000)">
            <g id="Page-1" transform="translate(1037.000000, 3092.000000)">
                <path d="M120,122 C120,124.978 122.423,127.4 125.4,127.4 C127.322,127.4 129.115,126.365 130.08,124.7 C130.377,124.184 130.894,123.902 131.446,123.842 C131.536,123.825 131.623,123.825 131.714,123.823 C131.788,123.827 131.858,123.825 131.934,123.838 C132.49,123.894 133.018,124.177 133.32,124.698 C134.285,126.365 136.078,127.4 138,127.4 C140.977,127.4 143.4,124.978 143.4,122 C143.4,119.022 140.977,116.601 138,116.601 C136.078,116.601 134.285,117.635 133.32,119.3 C133.018,119.826 132.486,120.108 131.925,120.16 C131.858,120.171 131.793,120.171 131.725,120.175 C131.63,120.173 131.538,120.171 131.444,120.155 C130.894,120.096 130.375,119.815 130.078,119.3 C129.113,117.635 127.32,116.601 125.4,116.601 C122.423,116.601 120,119.022 120,122 L120,122 Z M58.8,127.4 L80.4,127.4 L80.4,116.6 L58.8,116.6 L58.8,127.4 Z M87.6,127.4 L109.2,127.4 L109.2,116.6 L87.6,116.6 L87.6,127.4 Z M138,113 C142.962,113 147,117.037 147,122 C147,126.963 142.962,131 138,131 C135.62,131 133.363,130.046 131.7,128.419 C130.037,130.046 127.779,131 125.4,131 C120.437,131 116.4,126.963 116.4,122 C116.4,117.037 120.437,113 125.4,113 C127.779,113 130.037,113.954 131.7,115.581 C133.363,113.954 135.62,113 138,113 L138,113 Z M102,109.4 C91.663,109.4 82.673,103.554 78.139,95 L48,95 L48,134.601 C48,137.577 50.422,140 53.4,140 L150.6,140 C153.577,140 156,137.577 156,134.601 L156,95 L125.861,95 C121.327,103.554 112.337,109.4 102,109.4 L102,109.4 Z M79.2,68 L53.401,68 C50.422,68 48,70.423 48,73.4 L48,77 L75.544,77 C76.207,73.746 77.478,70.716 79.2,68 L79.2,68 Z M150.6,68 L124.8,68 C126.521,70.716 127.792,73.746 128.457,77 L156,77 L156,73.4 C156,70.423 153.577,68 150.6,68 L150.6,68 Z M129,82.4 C129,85.559 128.426,88.579 127.425,91.4 L156,91.4 L156,80.6 L128.908,80.6 C128.948,81.197 129,81.792 129,82.4 L129,82.4 Z M75,82.4 C75,81.792 75.052,81.197 75.092,80.6 L48,80.6 L48,91.4 L76.575,91.4 C75.574,88.579 75,85.559 75,82.4 L75,82.4 Z M115.654,75.2 L112.8,72.346 L96.072,89.072 C95.721,89.424 95.26,89.6 94.8,89.6 C94.339,89.6 93.878,89.424 93.527,89.072 L89.399,84.945 L86.545,87.8 L94.8,96.055 L115.654,75.2 Z M102,105.8 C114.902,105.8 125.4,95.303 125.4,82.4 C125.4,69.498 114.902,59 102,59 C89.098,59 78.6,69.498 78.6,82.4 C78.6,95.303 89.098,105.8 102,105.8 L102,105.8 Z M88.127,81.128 C88.831,80.424 89.969,80.424 90.672,81.128 L94.8,85.255 L111.527,68.527 C112.231,67.823 113.369,67.823 114.072,68.527 L119.473,73.928 C120.176,74.631 120.176,75.769 119.473,76.473 L96.072,99.873 C95.722,100.224 95.261,100.4 94.8,100.4 C94.339,100.4 93.878,100.224 93.527,99.873 L82.727,89.072 C82.023,88.369 82.023,87.231 82.727,86.527 L88.127,81.128 Z" id="Fill-3" fill="#3C478F"></path>
                <mask id="mask-2" fill="white">
                    <use xlink:href="#path-1"></use>
                </mask>
                <g id="Clip-6"></g>
                <polygon id="Fill-5" fill="#FFFFFF" mask="url(#mask-2)" points="91.2 123.8 105.6 123.8 105.6 120.2 91.2 120.2"></polygon>
                <polygon id="Fill-7" fill="#FFFFFF" mask="url(#mask-2)" points="62.4 123.8 76.8 123.8 76.8 120.2 62.4 120.2"></polygon>
            </g>
        </g>
    </g>
</svg>